<?xml version="1.0" encoding="utf-8" ?>
<svg xmlns="http://www.w3.org/2000/svg"
    xmlns:xlink="http://www.w3.org/1999/xlink" width="1024" height="1024" viewBox="0 0 1024 1024">
    <path fill="#084663" d="M512.231 74.7357C514.443 74.7198 516.655 74.7483 518.865 74.8212C560.57 75.984 600.56 91.6695 631.933 119.17C638.525 124.865 643.838 130.589 649.85 136.891C737.203 122.813 815.726 168.147 846.726 250.534C847.987 253.887 849.232 257.235 850.445 260.607C856.603 262.38 866.361 266.904 872.111 269.92C897.379 282.955 919.256 301.709 936 324.688C967.74 367.888 976.094 418.72 968.072 470.806C975.97 479.751 984.826 496.354 989.288 507.384C1006.95 551.045 1005.17 603.768 987.148 646.965C968.32 692.099 929.379 731.842 883.908 750.25C872.752 796.63 820.254 842.469 781.317 866.7C784.34 869.068 787.391 871.448 790.233 874.034C796.573 879.807 802.076 887.579 802.246 896.463C802.378 903.325 799.373 909.354 794.629 914.158C757.27 951.987 570.464 950.607 513.125 950.57C457.433 950.493 400.213 949.994 344.798 944.621C314.442 941.677 244.426 936.71 226.195 909.326C222.489 903.82 221.225 897.027 222.701 890.556C225.109 879.941 234.22 871.961 242.889 866.256C234.597 861.114 226.506 855.656 218.633 849.894C191.34 829.97 146.387 785.597 141.044 751.06C134.215 748.826 125.767 744.433 119.449 740.841C75.1258 715.483 42.5266 673.741 28.6648 624.594C17.7498 585.564 20.0021 544.025 35.0732 506.403C40.6131 492.751 46.5447 482.364 53.7907 469.672C41.0718 386.901 78.9579 308.184 153.323 268.843C158.829 265.93 167.448 261.094 173.306 259.716C191.839 205.529 235.254 158.295 290.74 141.936C315.541 134.623 346.826 131.416 372.255 137.153C372.997 136.306 373.754 135.475 374.527 134.657C412.387 94.7265 457.758 76.0627 512.231 74.7357Z"/>
    <defs>
        <linearGradient id="gradient_0" gradientUnits="userSpaceOnUse" x1="521.09802" y1="922.46155" x2="500.40344" y2="478.4812">
            <stop offset="0" stop-color="#FD8906"/>
            <stop offset="1" stop-color="#FEB807"/>
        </linearGradient>
    </defs>
    <path fill="url(#gradient_0)" d="M193.102 649.817C200.114 637.977 214.629 619.248 223.787 608.542C281.05 541.602 359.104 485.517 444.938 462.761C459.972 458.775 492.623 453.028 507.76 452.668C570.66 451.172 632.753 474.281 686.093 505.937C735.108 535.026 779.558 577.457 813.511 622.996C819.321 630.789 830.411 646.516 834.903 654.847C835.841 655.835 840.464 663.769 841.33 665.368C851.829 684.754 860.244 702.94 864.536 724.662C869.126 744.436 861.381 763.494 849.5 779.776C792.812 856.206 698.039 897.597 606.528 914.758C474.401 939.535 325.268 910.966 219.12 826.098C197.975 809.192 165.627 774.006 160.362 747.522C154.87 719.892 177.493 672.47 193.102 649.817Z"/>
    <path fill="#FEC84E" d="M193.102 649.817C200.114 637.977 214.629 619.248 223.787 608.542C281.05 541.602 359.104 485.517 444.938 462.761C459.972 458.775 492.623 453.028 507.76 452.668C570.66 451.172 632.753 474.281 686.093 505.937C735.108 535.026 779.558 577.457 813.511 622.996C819.321 630.789 830.411 646.516 834.903 654.847C833.455 654.78 832.948 654.914 831.945 653.684C778.262 587.829 713.006 533.651 633.588 501.174C539.411 462.661 449.301 473.411 359.599 518.829C319.085 539.248 281.503 565.025 247.864 595.467C234.005 607.958 220.773 621.128 208.216 634.927C205.347 638.073 196.489 648.756 193.102 649.817Z"/>
    <path fill="#F27701" d="M842.892 753.759L843.512 754.209C844.401 756.92 840.222 763.157 838.869 765.678C829.782 782.613 816.421 795.538 802.269 808.419C771.663 836.277 734.444 856.024 696.004 871.061C611.31 904.008 519.301 913.514 429.661 898.579C361.896 887.521 300.649 864.221 244.04 825.114C234.903 818.802 226.098 812.861 217.704 805.474C209.418 798.089 201.948 789.837 195.42 780.86C190.745 775.722 184.428 763.319 182.013 757.048C190.657 763.546 199.217 774.961 208.078 781.851C212.618 785.382 217.386 789.065 222.058 792.404C306.169 852.518 437.179 879.693 539.025 872.617C566.083 870.701 593.009 867.227 619.668 862.214C693.86 847.509 791.996 812.135 842.892 753.759Z"/>
    <path fill="#082132" d="M316.397 726.893C297.244 696.344 302.864 656.443 329.709 632.372C356.555 608.301 396.831 607.051 425.117 629.41C453.404 651.77 461.488 691.246 444.267 722.924C431.692 746.056 407.786 760.776 381.47 761.593C355.155 762.41 330.382 749.2 316.397 726.893Z"/>
    <path fill="#084663" d="M316.397 726.893C320.096 726.646 337.566 732.458 342.863 733.808C367.46 740.321 393.386 739.843 417.727 732.429C426.98 729.606 435.304 725.961 444.267 722.924C431.692 746.056 407.786 760.776 381.47 761.593C355.155 762.41 330.382 749.2 316.397 726.893Z"/>
    <path fill="white" d="M352.68 638.07C387.099 635.041 386.145 680.537 353.06 689.426C347.444 689.984 342.814 689.722 337.994 686.617C321.551 676.025 327.264 653.843 340.472 643.414C344.524 640.214 347.88 639.152 352.68 638.07Z"/>
    <path fill="white" d="M381.793 689.71C384.867 689.231 387.961 690.443 389.892 692.883C391.823 695.323 392.292 698.613 391.12 701.495C389.947 704.377 387.315 706.406 384.23 706.805C379.543 707.412 375.239 704.139 374.572 699.461C373.905 694.782 377.123 690.437 381.793 689.71Z"/>
    <path fill="#082132" d="M585.94 729.465C566.435 700.97 569.273 662.764 592.773 637.464C616.274 612.163 654.167 606.518 684.021 623.871C713.876 641.224 727.725 676.943 717.372 709.886C708.893 736.866 685.755 756.637 657.783 760.803C629.811 764.97 601.915 752.802 585.94 729.465Z"/>
    <path fill="#084663" d="M585.94 729.465C595.69 730.603 605.264 734.433 615.43 735.818C642.905 739.599 670.88 734.907 695.619 722.369C702.743 718.809 710.292 713.897 717.372 709.886C708.893 736.866 685.755 756.637 657.783 760.803C629.811 764.97 601.915 752.802 585.94 729.465Z"/>
    <path fill="white" d="M621.092 637.126C652.967 633.847 652.801 683.298 619.793 690.463C585.717 693.341 588.616 642.848 621.092 637.126Z"/>
    <path fill="white" d="M647.934 689.915C651.107 689.468 654.276 690.759 656.233 693.296C658.19 695.834 658.633 699.227 657.394 702.182C656.155 705.138 653.424 707.199 650.242 707.582C645.392 708.165 640.977 704.735 640.344 699.891C639.712 695.047 643.097 690.598 647.934 689.915Z"/>
    <path fill="#082132" d="M477.017 754.52C484.57 754.461 483.957 758.758 487.708 764.069C500.904 782.755 529.62 781.424 539.756 760.032C545.265 748.404 557.547 754.884 549.57 769.836C546.666 774.605 542.87 778.77 538.39 782.103C528.945 789.217 517.002 792.16 505.332 790.251C493.04 788.317 472.107 775.145 472.861 759.624C472.973 757.312 475.157 755.719 477.017 754.52Z"/>
    <path fill="#64C7E4" d="M501.543 94.206C507.882 93.4531 518.178 93.8698 524.42 94.3307C567.492 97.5114 607.375 117.665 635.376 150.743C629.071 167.572 623.31 184.599 618.101 201.798C599.017 262.649 585.023 324.98 576.262 388.149C573.71 405.842 572.696 423.238 570.393 440.706C553.622 437.314 536.608 435.255 519.511 434.548C493.587 434.434 477.857 436.959 452.68 441.858C451.435 435.47 450.768 426.435 450.059 419.721C448.757 406.205 447.166 392.719 445.288 379.271C436.29 316.478 423.404 252.232 402.103 192.425C397.201 178.662 392.807 165.462 386.04 152.479C386.703 151.501 387.387 150.576 388.17 149.693C419.358 114.507 455.883 98.2433 501.543 94.206Z"/>
    <path fill="#5DCEF0" d="M504.149 128.71C510.675 127.629 522.692 128.772 529.254 129.591C559.271 133.338 583.953 147.032 607.702 164.828C606.844 167.467 606.141 170.49 605.516 173.211C601.51 190.674 597.632 208.18 594.281 225.781C593.602 229.349 592.64 231.974 592.327 235.653L592.035 235.023C594.045 226.546 594.968 217.145 597.59 208.065C599.382 201.858 587.449 195.713 582.768 194.837C581.783 194.653 576.685 196.982 573.723 196.853C572.415 195.679 571.19 194.446 569.552 193.869C562.802 191.492 561.324 196.286 555.73 197.44C550.125 198.597 543.806 197.734 538.258 198.78C536.318 199.145 534.777 202.693 533.623 203.081C529.902 204.334 525.151 204.625 521.462 206.218C520.008 206.846 520.092 209.624 519.395 212.066C518.227 210.649 518.938 210.952 517.401 210.727L516.16 211.813C510.552 210.421 505.749 211.383 505.582 218.08C505.474 219.801 505.692 219.651 504.917 221.022L504.32 220.599C503.171 217.026 503.585 216.781 503.624 213.005C498.238 215.949 496.823 211.888 495.088 219.455C493.81 225.029 475.772 222.453 473.536 228.223L476.13 229.173C476.281 228.946 468.064 235.266 467.876 235.328C457.785 238.645 448.241 253.595 438.241 255.565L437.478 255.71C436.491 260.437 440.273 270.143 439.217 274.475C439.06 270.572 438.163 267.528 437.548 263.739C432.159 230.538 425.525 195.921 416.41 163.592C440.313 143.522 473.161 131.224 504.149 128.71Z"/>
    <path fill="#64C7E4" d="M665.905 154.155C673.837 153.105 681.856 152.875 689.834 153.468C729.251 154.887 768.144 173.851 794.842 202.651C812.833 222.059 824.296 244.238 832.636 269.143C823.83 280.232 816.176 292.109 808.268 303.839C806.988 305.739 805.667 307.927 804.294 309.737C791.622 330.764 779.093 349.776 766.851 371.369C743.292 412.922 725.398 452.532 706.824 496.257C677.586 476.293 644.524 461.913 611.044 450.901C608.466 450.053 604.821 449.018 602.392 447.967C597.955 446.737 593.501 445.571 589.031 444.467C589.859 437.295 590.317 430.181 591.228 422.865C597.997 366.086 608.6 309.83 622.966 254.483C628.758 233.309 635.02 212.266 641.747 191.37C645.609 179.523 650.074 167.536 653.663 155.656C657.916 155.18 661.466 154.37 665.905 154.155Z"/>
    <defs>
        <linearGradient id="gradient_1" gradientUnits="userSpaceOnUse" x1="542.49512" y1="340.52017" x2="728.45349" y2="254.31859">
            <stop offset="0" stop-color="#94CDDC"/>
            <stop offset="1" stop-color="#D0F2F6"/>
        </linearGradient>
    </defs>
    <path fill="url(#gradient_1)" d="M665.905 154.155C673.837 153.105 681.856 152.875 689.834 153.468C688.8 155.405 685.913 161.096 684.792 162.564C682.115 168.827 678.722 175.23 675.822 181.479C671.936 190.047 668.229 198.696 664.705 207.42C639.88 267.815 621.443 330.641 609.695 394.873L604.67 423.347C603.93 427.621 602.414 435.283 602.158 439.353C601.893 441.676 601.591 443.996 601.255 446.31L601.618 446.734L602.392 447.967C597.955 446.737 593.501 445.571 589.031 444.467C589.859 437.295 590.317 430.181 591.228 422.865C597.997 366.086 608.6 309.83 622.966 254.483C628.758 233.309 635.02 212.266 641.747 191.37C645.609 179.523 650.074 167.536 653.663 155.656C657.916 155.18 661.466 154.37 665.905 154.155Z"/>
    <path fill="white" d="M665.905 154.155C673.837 153.105 681.856 152.875 689.834 153.468C688.8 155.405 685.913 161.096 684.792 162.564L684.38 162.058C684.687 161.104 684.685 161.098 684.883 160.052C677.603 151.885 674.441 155.623 665.905 154.155Z"/>
    <path fill="#5DCEF0" d="M602.158 439.353C603.414 441.667 602.648 442.923 602.343 446.088L601.618 446.734L601.255 446.31C601.591 443.996 601.893 441.676 602.158 439.353Z"/>
    <defs>
        <linearGradient id="gradient_2" gradientUnits="userSpaceOnUse" x1="327.42245" y1="495.88528" x2="321.46091" y2="162.09901">
            <stop offset="0" stop-color="#7EC7D7"/>
            <stop offset="1" stop-color="#C3E8F0"/>
        </linearGradient>
    </defs>
    <path fill="url(#gradient_2)" d="M191.101 267.361C195.024 257.633 198.569 248.967 203.454 239.712C230.732 188.041 276.815 156.935 335.434 153.565C347.08 153.376 355.345 154.212 366.946 155.633C368.796 159.847 372.637 168.011 373.857 172.166C379.178 183.441 384.965 201.423 388.769 213.362C405.67 267.654 418.13 323.229 426.028 379.54C428.663 397.113 433.043 428.974 433.635 446.972C393.624 457.7 355.11 476.278 319.992 498.038C315.231 488.079 310.566 478.008 306.029 467.946C280.135 410.518 250.249 357.32 216.921 304.008C208.912 291.382 200.295 279.152 191.101 267.361Z"/>
    <path fill="#64C7E4" d="M191.101 267.361C195.024 257.633 198.569 248.967 203.454 239.712C230.732 188.041 276.815 156.935 335.434 153.565C336.266 156.682 342.979 170.243 344.764 174.038L345.101 174.961C346.828 179.617 350.634 187.253 352.784 192.083C357.606 202.995 362.178 214.015 366.498 225.134C388.08 281.712 403.64 341.243 413.696 400.88C414.471 405.476 416.017 411.83 416.301 416.338L414.967 418.404C413.504 415.949 411.281 399.994 410.343 396.111C408.399 388.058 406.558 379.525 404.583 371.44C396.288 336.903 385.174 303.103 371.354 270.383C361.077 245.568 343.523 207.042 324.011 188.204C314.092 192.093 305.144 194.62 295.132 199.09C260.928 214.358 240.967 238.15 227.378 272.513C224.804 278.704 223.01 285.134 221.063 291.534C219.843 295.542 218.84 300.321 216.921 304.008C208.912 291.382 200.295 279.152 191.101 267.361Z"/>
    <path fill="white" d="M335.434 153.565C347.08 153.376 355.345 154.212 366.946 155.633C368.796 159.847 372.637 168.011 373.857 172.166L373.457 172.83C370.35 168.36 372.765 163.53 363.165 162.399C355.497 161.495 347.967 161.414 342.29 167.159C343.462 169.457 344.968 171.593 344.764 174.038C342.979 170.243 336.266 156.682 335.434 153.565Z"/>
    <path fill="#5DCEF0" d="M414.967 418.404L416.301 416.338C417.067 421.651 418.383 427.178 418.857 432.425L418.551 432.318L418.778 433.253C417.262 429.113 416.388 420.998 414.967 418.404Z"/>
    <path fill="#64C7E4" d="M72.9492 466.824C71.7208 455.982 70.7067 446.355 70.8054 435.425C71.0521 397.154 84.2308 360.09 108.201 330.255C124.815 309.403 150.875 289.555 175.68 279.78C206.928 321.088 229.842 360.519 253.874 406.049C271.704 439.786 288.15 474.236 303.172 509.313C299.903 511.641 296.24 514.132 293.099 516.578L290.263 518.881C261.992 540.543 227.346 572.721 205.474 600.448C178.06 569.844 149.61 540.185 120.174 511.52C110.308 501.736 99.6979 492.425 90.0157 482.476L72.9492 466.824Z"/>
    <path fill="#5DCEF0" d="M72.9492 466.824C71.7208 455.982 70.7067 446.355 70.8054 435.425C71.0521 397.154 84.2308 360.09 108.201 330.255C124.815 309.403 150.875 289.555 175.68 279.78C206.928 321.088 229.842 360.519 253.874 406.049C271.704 439.786 288.15 474.236 303.172 509.313C299.903 511.641 296.24 514.132 293.099 516.578L290.263 518.881C288.897 515.437 285.895 511.338 283.992 508.019C253 453.946 222.194 399.072 183.466 350.045C176.436 341.147 169.288 331.758 161.551 323.494C152.758 328.427 138.302 341.195 131.167 348.772C105.263 376.281 88.9577 412.473 87.7594 450.429C87.6656 456.615 87.8567 462.833 88.4796 468.988C88.9361 473.497 89.9358 477.94 90.0157 482.476L72.9492 466.824Z"/>
    <path fill="#26AAD0" d="M164.373 306.599C175.624 320.37 187.203 333.406 197.903 347.725C210.663 364.798 221.917 382.195 233.024 400.378C248.335 425.443 262.888 452.422 275.681 478.853C279.009 485.655 282.235 492.507 285.36 499.405C286.411 501.755 292.135 515.41 293.099 516.578L290.263 518.881C288.897 515.437 285.895 511.338 283.992 508.019C253 453.946 222.194 399.072 183.466 350.045C176.436 341.147 169.288 331.758 161.551 323.494C152.758 328.427 138.302 341.195 131.167 348.772C105.263 376.281 88.9577 412.473 87.7594 450.429C87.6656 456.615 87.8567 462.833 88.4796 468.988C88.9361 473.497 89.9358 477.94 90.0157 482.476L72.9492 466.824L74.4585 466.706C75.5407 463.072 74.9717 453.636 75.1296 449.334C77.0039 398.242 103.197 348.478 144.738 318.504C150.832 314.107 157.793 310.292 164.373 306.599Z"/>
    <path fill="#26AAD0" d="M848.453 280.025C853.299 281.687 857.964 284.538 862.502 286.918C922.719 318.503 954.731 377.463 950.993 445.424C951.064 452.234 949.833 462.635 948.666 469.41C937.067 479.366 927.278 489.525 916.249 500.052C895.649 519.819 875.25 539.795 855.057 559.978C842.637 572.493 830.551 585.28 818.034 597.719C799.38 572.115 773.983 549.842 750.911 528.233C744.548 522.274 735.922 517.15 729.892 511.415L722.942 505.975C737.352 473.878 752.27 440.442 768.395 409.148C781.998 383.077 796.682 357.583 812.407 332.733C822.88 316.112 836.516 295.64 848.453 280.025Z"/>
    <path fill="#5DCEF0" d="M848.453 280.025C853.299 281.687 857.964 284.538 862.502 286.918C922.719 318.503 954.731 377.463 950.993 445.424C949.501 447.691 949.473 454.684 949.011 457.932C949.782 453.785 948.208 443.858 947.632 439.31C943.822 409.242 935.372 382.955 918.078 357.805C903.02 336.12 882.587 318.72 858.78 307.309C822.258 349.948 795.43 388.627 768.028 437.64C759.788 452.573 751.948 467.724 744.516 483.075C742.002 488.171 732.797 508.165 729.892 511.415L722.942 505.975C737.352 473.878 752.27 440.442 768.395 409.148C781.998 383.077 796.682 357.583 812.407 332.733C822.88 316.112 836.516 295.64 848.453 280.025Z"/>
    <path fill="#26AAD0" d="M46.7106 617.542C43.812 605.326 41.5089 592.748 41.1908 580.164C40.3991 548.85 48.8824 514.56 65.4461 488.002C65.713 487.577 65.9856 487.156 66.2641 486.739C82.3394 500.626 98.6003 517.461 113.776 532.443C140.151 558.48 169.63 586.721 192.537 615.639L185.884 625.142C165.099 656.926 144.222 692.75 140.244 731.328C135.229 728.671 130.302 725.849 125.473 722.868C88.4089 699.695 56.6305 660.591 46.7106 617.542Z"/>
    <path fill="#5DCEF0" d="M46.7106 617.542C43.812 605.326 41.5089 592.748 41.1908 580.164C40.3991 548.85 48.8824 514.56 65.4461 488.002C65.713 487.577 65.9856 487.156 66.2641 486.739C82.3394 500.626 98.6003 517.461 113.776 532.443C140.151 558.48 169.63 586.721 192.537 615.639L185.884 625.142C180.04 619.429 174.161 612.408 168.082 606.396C150.269 588.933 131.909 572.037 113.028 555.735C99.9683 544.348 81.491 528.531 66.9167 518.751C54.2276 538.085 47.5623 573.471 47.0291 596.471C46.9429 600.187 47.7643 615.515 46.7106 617.542Z"/>
    <path fill="#26AAD0" d="M830.2 613.127C833.848 608.843 838.976 603.906 843.007 599.749C850.507 591.94 858.076 584.197 865.713 576.522C886.506 555.649 907.505 534.982 928.706 514.523C938.04 505.479 947.281 496.977 956.556 487.755C957.759 489.479 958.942 491.217 960.104 492.968C982.565 526.967 986.387 571.859 978.432 611.134C977.659 616.567 974.942 624.662 973.18 629.933C961.891 663.701 940.146 691.991 911.738 713.282C903.1 719.707 893.99 725.472 884.485 730.528C878.421 688.027 860.555 656.994 836.547 622.071L830.2 613.127Z"/>
    <path fill="#5DCEF0" d="M830.2 613.127C833.848 608.843 838.976 603.906 843.007 599.749C850.507 591.94 858.076 584.197 865.713 576.522C886.506 555.649 907.505 534.982 928.706 514.523C938.04 505.479 947.281 496.977 956.556 487.755C957.759 489.479 958.942 491.217 960.104 492.968C982.565 526.967 986.387 571.859 978.432 611.134C976.921 604.678 977.892 595.951 977.217 588.971C975.452 570.708 972.783 551.695 962.494 536.025C958.963 530.576 954.495 526.091 951.221 521.205C925.349 542.795 899.347 563.884 874.349 586.578C861.584 598.167 849.037 610.177 836.547 622.071L830.2 613.127Z"/>
    <path fill="#F27701" d="M763.454 877.91C767.843 879.415 772.205 882.523 775.761 885.48C778.776 887.987 783.3 891.68 783.54 895.872C783.657 897.903 782.778 899.724 781.434 901.202C765.202 919.052 677.732 926.971 653.757 927.605C647.329 928.097 637.797 928.497 631.665 927.43C675.924 922.039 724.474 898.905 763.454 877.91Z"/>
    <path fill="#F27701" d="M261.717 878.026C262.768 878.277 275.485 885.527 277.28 886.481C303.244 900.288 330.525 910.832 358.453 919.923C369.051 923.372 381.225 925.079 391.62 929.253C385.718 929.239 376.708 928.266 370.376 927.918C343.553 925.711 315.58 923.559 289.046 918.198C274.593 914.798 252.943 911.48 243.108 899.618C236.593 891.76 256.299 880.926 261.717 878.026Z"/>
</svg>
